<mxfile host="app.diagrams.net" modified="2021-06-11T06:21:46.299Z" agent="5.0 (Windows)" etag="5rNjuEgfRVd13ArL3RfB" version="14.7.4" type="github">
  <diagram id="gTLhI4B2nnuSLGDJgcNC" name="Page-1">
    <mxGraphModel dx="1038" dy="508" grid="1" gridSize="10" guides="1" tooltips="1" connect="1" arrows="1" fold="1" page="1" pageScale="1" pageWidth="1169" pageHeight="827" math="0" shadow="0">
      <root>
        <mxCell id="0" />
        <mxCell id="1" parent="0" />
        <mxCell id="Ijk1C0J5Z4JsHxGwTTIQ-1" value="Digital services Materplan -Â  CEO&#39;s Vision" style="swimlane;" vertex="1" parent="1">
          <mxGeometry x="10" y="10" width="1150" height="810" as="geometry" />
        </mxCell>
        <mxCell id="Ijk1C0J5Z4JsHxGwTTIQ-2" value="&lt;h1&gt;Guiding Principle&lt;/h1&gt;&lt;p&gt;&lt;font style=&quot;font-size: 17px&quot;&gt;Digital services everywhere all the time&lt;/font&gt;&lt;br&gt;&lt;/p&gt;" style="text;html=1;strokeColor=none;fillColor=none;spacing=5;spacingTop=-20;whiteSpace=wrap;overflow=hidden;rounded=0;" vertex="1" parent="Ijk1C0J5Z4JsHxGwTTIQ-1">
          <mxGeometry y="740" width="410" height="70" as="geometry" />
        </mxCell>
        <mxCell id="Ijk1C0J5Z4JsHxGwTTIQ-3" value="E-Gov" style="rounded=0;whiteSpace=wrap;html=1;" vertex="1" parent="Ijk1C0J5Z4JsHxGwTTIQ-1">
          <mxGeometry x="470" y="80" width="120" height="60" as="geometry" />
        </mxCell>
        <mxCell id="Ijk1C0J5Z4JsHxGwTTIQ-4" value="Internal back office" style="rounded=0;whiteSpace=wrap;html=1;" vertex="1" parent="Ijk1C0J5Z4JsHxGwTTIQ-1">
          <mxGeometry x="320" y="240" width="120" height="60" as="geometry" />
        </mxCell>
        <mxCell id="Ijk1C0J5Z4JsHxGwTTIQ-5" value="Citizen interaction /front office" style="rounded=0;whiteSpace=wrap;html=1;" vertex="1" parent="Ijk1C0J5Z4JsHxGwTTIQ-1">
          <mxGeometry x="620" y="240" width="120" height="60" as="geometry" />
        </mxCell>
        <mxCell id="Ijk1C0J5Z4JsHxGwTTIQ-14" value="Security" style="rounded=0;whiteSpace=wrap;html=1;align=left;" vertex="1" parent="Ijk1C0J5Z4JsHxGwTTIQ-1">
          <mxGeometry x="455" y="381" width="120" height="40" as="geometry" />
        </mxCell>
        <mxCell id="Ijk1C0J5Z4JsHxGwTTIQ-15" value="Data" style="rounded=0;whiteSpace=wrap;html=1;align=left;" vertex="1" parent="Ijk1C0J5Z4JsHxGwTTIQ-1">
          <mxGeometry x="455" y="501" width="120" height="40" as="geometry" />
        </mxCell>
        <mxCell id="Ijk1C0J5Z4JsHxGwTTIQ-16" value="Enterprise systems" style="rounded=0;whiteSpace=wrap;html=1;align=left;" vertex="1" parent="Ijk1C0J5Z4JsHxGwTTIQ-1">
          <mxGeometry x="455" y="440" width="120" height="40" as="geometry" />
        </mxCell>
        <mxCell id="Ijk1C0J5Z4JsHxGwTTIQ-17" value="Digital skill" style="rounded=0;whiteSpace=wrap;html=1;align=left;" vertex="1" parent="Ijk1C0J5Z4JsHxGwTTIQ-1">
          <mxGeometry x="455" y="621" width="120" height="40" as="geometry" />
        </mxCell>
        <mxCell id="Ijk1C0J5Z4JsHxGwTTIQ-18" value="Smart applications" style="rounded=0;whiteSpace=wrap;html=1;align=left;" vertex="1" parent="Ijk1C0J5Z4JsHxGwTTIQ-1">
          <mxGeometry x="455" y="560" width="120" height="40" as="geometry" />
        </mxCell>
        <mxCell id="Ijk1C0J5Z4JsHxGwTTIQ-7" value="" style="strokeWidth=2;html=1;shape=mxgraph.flowchart.annotation_2;align=left;labelPosition=right;pointerEvents=1;direction=south;" vertex="1" parent="1">
          <mxGeometry x="390" y="150" width="300" height="100" as="geometry" />
        </mxCell>
        <mxCell id="Ijk1C0J5Z4JsHxGwTTIQ-12" value="" style="endArrow=none;html=1;entryX=0.5;entryY=1;entryDx=0;entryDy=0;" edge="1" parent="1" target="Ijk1C0J5Z4JsHxGwTTIQ-4">
          <mxGeometry width="50" height="50" relative="1" as="geometry">
            <mxPoint x="390" y="650" as="sourcePoint" />
            <mxPoint x="540" y="410" as="targetPoint" />
          </mxGeometry>
        </mxCell>
        <mxCell id="Ijk1C0J5Z4JsHxGwTTIQ-13" value="Networks" style="rounded=0;whiteSpace=wrap;html=1;align=left;" vertex="1" parent="1">
          <mxGeometry x="465" y="330" width="120" height="40" as="geometry" />
        </mxCell>
      </root>
    </mxGraphModel>
  </diagram>
</mxfile>
